<svg xmlns="http://www.w3.org/2000/svg" xmlns:xlink="http://www.w3.org/1999/xlink" width="36" height="64" viewBox="0 0 36 64">
  <defs>
    <clipPath id="clip-path">
      <rect id="Rectangle_17" data-name="Rectangle 17" width="35.071" height="64" fill="none"/>
    </clipPath>
    <clipPath id="clip-coke">
      <rect width="36" height="64"/>
    </clipPath>
  </defs>
  <g id="coke" clip-path="url(#clip-coke)">
    <g id="Group_24" data-name="Group 24">
      <g id="Group_23" data-name="Group 23" clip-path="url(#clip-path)">
        <path id="Path_50" data-name="Path 50" d="M35.065,5.644A76.848,76.848,0,0,1,34.5,18.209c-.792,4.927-2.584,9.466-4.088,14.131C28.082,39.572,28.8,46.176,29.86,53.4c.268,1.822.925,3.675,1.058,5.476.1,1.429-.93,2.517-2.5,3.427C24.472,64.59,9.887,64.779,5.1,61.535a2.563,2.563,0,0,1-1.245-2.657c.143-1.8.9-3.65,1.184-5.471,1.108-7.224,1.3-13.82-.989-21.061A94.149,94.149,0,0,1,.637,18.174,72.042,72.042,0,0,1,0,6.7,5.321,5.321,0,0,1,2.157,2.5C4.549.888,10.554.019,17.813,0c6.61-.017,12.265.551,15.113,1.876,1.63.758,2.143,1.961,2.139,3.769" transform="translate(0 0)" fill="#a3b6a3" fill-rule="evenodd"/>
        <path id="Path_51" data-name="Path 51" d="M36.862,6.777A83.483,83.483,0,0,1,36.1,19.654c-.767,4.845-2.516,9.307-3.973,13.894-2.258,7.111-1.71,13.568-.679,20.675.26,1.791.986,3.614,1.114,5.384a3.081,3.081,0,0,1-.464,2.162c-3.017,4.129-20.918,3.447-24.235.642A3.223,3.223,0,0,1,6.842,59.57c.139-1.77.876-3.589,1.146-5.38,1.074-7.1,1.258-13.553-.958-20.673A93.712,93.712,0,0,1,3.722,19.581,78.14,78.14,0,0,1,3.106,7.818,4.426,4.426,0,0,1,4.837,3.957c2.317-1.582,8.314-2.285,15.347-2.285,7.727,0,14.2.937,15.923,2.767a4.754,4.754,0,0,1,.755,2.338" transform="translate(-2.34 -1.26)" fill="#bcccbe" fill-rule="evenodd"/>
        <path id="Path_52" data-name="Path 52" d="M64.881,73.706a36.144,36.144,0,0,0,12.988-2.041c.1.578.484,3.306.588,3.884.509,2.851-5.96,3.414-10.047,3.68-2.991.195-1.5.071-1.507-2.348a4.29,4.29,0,0,0-2.022-3.175m4.152-49.175c3.409-.072,10.576-1.379,13.393-2.586.205-.088.406.183.406.406,0,.788.074,2.426.074,3.214,0,.223-.159,1.034-.369,1.108A61.81,61.81,0,0,1,68.829,29a.4.4,0,0,1-.406-.406c0-.788.2-2.869.2-3.658a.411.411,0,0,1,.406-.406" transform="translate(-48.901 -16.527)" fill="#9ab1a1" fill-rule="evenodd"/>
        <path id="Path_53" data-name="Path 53" d="M14.942,72.138c.219-1.082.431-2.159.617-3.236.058.026.122.052.19.079a19,19,0,0,0,4.295.893c-.056.673-.2,1.557-.349,2.4-.485,2.685-4.938.779-4.753-.134m-4.588-53.65a5.691,5.691,0,0,0,2.073,1.218,26.865,26.865,0,0,0,.132,3.609c.028.931,5.4,4.389,5.88,1.7.131-.723.089-3.092.111-4.168a23.239,23.239,0,0,0,4.7-.116c1.747-.207,1.42-.3.278-.378-1.294-.083-2.944-.058-4.692-.2-2.78-.218-5.834-.664-7.607-1.595a4.868,4.868,0,0,1-.685-.417,2.84,2.84,0,0,1-.58-.571c-.156-.214-.332-.013.386.909" transform="translate(-7.407 -13.19)" fill="#daf5e1" fill-rule="evenodd"/>
        <path id="Path_54" data-name="Path 54" d="M38.184,33.1a75.615,75.615,0,0,1-.833,9.881c-.725,4.908-2.483,9.452-3.855,14.1-2.126,7.2-1.862,13.606-.9,20.805.327,2.433.956,2.535-2.09,3.254a42.846,42.846,0,0,1-10.087,1.085,23.478,23.478,0,0,1-9.036-1.715c-1.2-.621-1.03-1.036-.734-3.147,1.013-7.195,1.226-13.114-.854-20.327-1.342-4.653-3.07-9.2-3.764-14.115A72.215,72.215,0,0,1,5.5,32.734c1.446,2.073,8.278,3.642,16.49,3.642,7.724,0,14.266-1.389,16.2-3.279" transform="translate(-4.143 -24.672)" fill="#a25035" fill-rule="evenodd"/>
        <path id="Path_55" data-name="Path 55" d="M39.909,36.16a79.214,79.214,0,0,1-.775,9.242c-.687,4.908-2.354,9.452-3.656,14.1-2.017,7.2-1.766,13.606-.849,20.805.31,2.433.906,2.535-1.983,3.254a38.62,38.62,0,0,1-9.567,1.085,21.275,21.275,0,0,1-8.57-1.715c-1.141-.621-.977-1.036-.7-3.147.961-7.195,1.163-13.114-.81-20.327-1.273-4.653-2.912-9.2-3.57-14.115a72.05,72.05,0,0,1-.509-9.4C11.353,37.616,17.442,38.8,24.57,38.8c6.824,0,12.725-1.083,15.338-2.639" transform="translate(-6.726 -27.094)" fill="#80310d" fill-rule="evenodd"/>
        <path id="Path_56" data-name="Path 56" d="M53.295,85.62c-.288.089-.639.183-1.069.289a38.623,38.623,0,0,1-9.567,1.085c-1.068-.01-6.729-.907-7.757-1.047.026-.214.2-5.178.235-5.44.869-7.2,6.067-11.489,4.972-18.7-.7-4.6-.895-15.5-.747-20.653a55.994,55.994,0,0,0,6.155.031c4.072,0,9.88-.868,12.852-2.12-.414,2.96-1,6.542-1.245,8.464-.614,4.908-2.28,9.6-3.3,14.249-1.576,7.2-.945,16.267-.556,23.465.007.133.015.259.023.379" transform="translate(-26.306 -29.442)" fill="#692403" fill-rule="evenodd"/>
        <path id="Path_57" data-name="Path 57" d="M55.422,58.553a.815.815,0,1,1-.962.8.89.89,0,0,1,.962-.8m6.049,11.515a.5.5,0,1,1-.589.49.545.545,0,0,1,.589-.49m-.964,18.623a.5.5,0,1,1-.589.49.545.545,0,0,1,.589-.49m.479-25.152a.815.815,0,1,1-.962.8.89.89,0,0,1,.962-.8m3.15-8.563a.815.815,0,1,1-.962.8.89.89,0,0,1,.962-.8m-11.024-.412a.815.815,0,1,1-.962.8.89.89,0,0,1,.962-.8m9.466,25.769a.5.5,0,1,1-.589.49.545.545,0,0,1,.589-.49m-7.122-7.419a.5.5,0,1,1-.589.49.545.545,0,0,1,.589-.49m5.267,4.716a.815.815,0,1,1-.962.8.89.89,0,0,1,.962-.8m-5.186,9.383a.815.815,0,1,1-.962.8.89.89,0,0,1,.962-.8m4.643-4.3a.815.815,0,1,1-.962.8.89.89,0,0,1,.962-.8m-4.087-4.76a.815.815,0,1,1-.962.8.89.89,0,0,1,.962-.8m7.022-3.632a.815.815,0,1,1-.962.8.891.891,0,0,1,.962-.8m-2.882-6.038a.5.5,0,1,1-.589.49.545.545,0,0,1,.589-.49M58.9,72.2a.815.815,0,1,1-.962.8.891.891,0,0,1,.962-.8m1.876-16.218a.815.815,0,1,1-.962.8.891.891,0,0,1,.962-.8m-3.262,8.81a.815.815,0,1,1-.962.8.891.891,0,0,1,.962-.8m6.045,1.776a.815.815,0,1,1-.962.8.89.89,0,0,1,.962-.8M65.187,58.3a.5.5,0,1,1-.589.49.545.545,0,0,1,.589-.49m-3.793,2.212a.781.781,0,1,1-.922.766.853.853,0,0,1,.922-.766" transform="translate(-39.306 -41.125)" fill="#80310d" fill-rule="evenodd"/>
        <path id="Path_58" data-name="Path 58" d="M38.485,5.92c3.213,1.025,2.308,2.344-.962,3A64.213,64.213,0,0,1,25.25,10.214c-6.524,0-12.065-.881-14.317-1.64-1.657-.558-1.169-1.633.093-2.3a20.582,20.582,0,0,1,6.991-1.6c7.014-.7,16.2-.119,20.469,1.244" transform="translate(-7.442 -3.301)" fill="#9ab1a1" fill-rule="evenodd"/>
        <path id="Path_59" data-name="Path 59" d="M44.986,17.935c-1.558.851-6.758,1.476-12.935,1.476s-11.377-.625-12.935-1.476c1.558-.851,6.759-1.476,12.935-1.476s11.377.625,12.935,1.476" transform="translate(-14.408 -12.405)" fill="#80310d" fill-rule="evenodd"/>
        <path id="Path_60" data-name="Path 60" d="M28.288,88.3a17.822,17.822,0,0,1-4.473-1.229c.123-.833.488-1.673.645-2.5,1.133-5.964,3.539-3.7,3.809.484a19.585,19.585,0,0,1,.019,3.243M23.445,55.194c-1.144-5.957-1.795-7.341-2.607-13.968A34.187,34.187,0,0,0,26.8,42.4c-.018,5.049.083,10.205.089,15.549.007,5.8-1.7,6.291-3.439-2.756" transform="translate(-15.706 -31.072)" fill="#9c5838" fill-rule="evenodd"/>
      </g>
    </g>
  </g>
</svg>
