<svg xmlns="http://www.w3.org/2000/svg" xmlns:xlink="http://www.w3.org/1999/xlink" width="20" height="20" viewBox="0 0 20 20">
  <defs>
    <clipPath id="clip-pepsi">
      <rect width="20" height="20"/>
    </clipPath>
  </defs>
  <g id="pepsi" clip-path="url(#clip-pepsi)">
    <path id="Path_66" data-name="Path 66" d="M6.666,1l6.666-1A6.666,6.666,0,0,1,20,6.666v6.666C20,17.015,17.015,19,13.333,19H6.666C2.985,19,0,17.015,0,13.333L1,6.666C1,2.985,2.985,1,6.666,1Z" transform="translate(0 0)" fill="#fff"/>
    <path id="Path_65" data-name="Path 65" d="M-10856,69.333V62.666a6.666,6.666,0,0,1,6.666-6.667h6.667a6.656,6.656,0,0,1,5.413,2.775c-3.093,6.338-10.178,10.965-18.647,11.7A6.714,6.714,0,0,1-10856,69.333Z" transform="translate(10856 -55.999)" fill="#cc0913"/>
    <path id="Path_64" data-name="Path 64" d="M-10848.111,61.657h-6.666a6.614,6.614,0,0,1-3.954-1.3,6.733,6.733,0,0,1-1.445-1.456,6.644,6.644,0,0,1-.94-1.846c.888.058,1.788.087,2.675.087a38.526,38.526,0,0,0,5.123-.336,32.544,32.544,0,0,0,4.642-.963,20.953,20.953,0,0,0,7.233-3.527V54.99a6.627,6.627,0,0,1-1.951,4.714A6.627,6.627,0,0,1-10848.111,61.657Z" transform="translate(10861.443 -41.657)" fill="#2656d9"/>
  </g>
</svg>
