<svg xmlns="http://www.w3.org/2000/svg" version="1.1" xmlns:xlink="http://www.w3.org/1999/xlink" xmlns:svgjs="http://svgjs.com/svgjs" width="480" height="480"><svg xmlns="http://www.w3.org/2000/svg" xmlns:xlink="http://www.w3.org/1999/xlink" width="480" height="480" viewBox="0 0 480 480">
  <defs>
    <clipPath id="SvgjsClipPath1016">
      <rect id="SvgjsRect1015" data-name="Rectangle 17" width="263.031" height="480" fill="none"></rect>
    </clipPath>
    <clipPath id="SvgjsClipPath1014">
      <rect width="480" height="480"></rect>
    </clipPath>
  </defs>
  <g id="SvgjsG1013" clip-path="url(#clip-favicon)">
    <g id="SvgjsG1012" data-name="Group 54" transform="translate(108)">
      <g id="SvgjsG1011" data-name="Group 23" clip-path="url(#clip-path)">
        <path id="SvgjsPath1010" data-name="Path 50" d="M262.987,42.336c-.072,32.695,1,61.769-4.227,94.238-5.941,36.951-19.383,71-30.659,105.982-17.484,54.236-12.127,103.767-4.151,157.975,2.01,13.662,6.94,27.563,7.932,41.067.787,10.718-6.972,18.881-18.752,25.7-29.59,17.132-138.974,18.55-174.864-5.78-7.228-4.9-10.1-10.334-9.336-19.93,1.071-13.5,6.783-27.376,8.878-41.033C46.119,346.378,47.545,296.9,30.39,242.6,19.323,207.563,10.5,173.28,4.777,136.3.276,107.2-.057,79.911.006,50.274.03,38.943,6.021,25.563,16.179,18.73,34.118,6.662,79.158.145,133.6,0c49.575-.129,91.99,4.132,113.348,14.069,12.225,5.684,16.073,14.7,16.042,28.265" transform="translate(0 0)" fill="#a3b6a3" fill-rule="evenodd"></path>
        <path id="SvgjsPath1009" data-name="Path 51" d="M256.285,39.96c-.076,32.148-.687,64.649-5.749,96.573-5.756,36.336-18.87,69.8-29.8,104.206C203.8,294.073,207.918,342.5,215.645,395.8c1.947,13.433,7.395,27.1,8.357,40.381.41,5.678.157,11.233-3.478,16.212C197.9,483.36,63.638,478.247,38.759,457.214c-5.884-4.975-8.313-12.495-7.622-21.31,1.042-13.276,6.567-26.918,8.6-40.348,8.054-53.272,9.438-101.646-7.186-155.045-10.723-34.45-19.273-68.159-24.816-104.518C3.369,107.38,3.05,76.908,3.111,47.765,3.135,36.624,6.255,25.526,16.1,18.807,33.478,6.942,78.454,1.672,131.2,1.672c57.953,0,106.528,7.025,119.422,20.752,3.068,3.264,5.675,13.293,5.666,17.536" transform="translate(2.631 1.417)" fill="#bcccbe" fill-rule="evenodd"></path>
        <path id="SvgjsPath1008" data-name="Path 52" d="M64.881,410.267c34.525,2.352,70.629-6.695,97.412-15.306.776,4.337,3.632,24.8,4.408,29.133,3.82,21.382-44.7,25.609-75.352,27.6-22.433,1.459-11.228.532-11.305-17.612-.046-10.391-11.49-23.462-15.162-23.815M96.018,41.454c25.566-.543,79.324-10.341,100.445-19.4,1.541-.659,3.048,1.373,3.048,3.048,0,5.911.556,18.2.556,24.107,0,1.676-1.193,7.753-2.771,8.313-22.14,7.869-77.338,16.976-102.8,17.457a3.036,3.036,0,0,1-3.048-3.046c0-5.913,1.524-21.521,1.524-27.432a3.081,3.081,0,0,1,3.048-3.048" transform="translate(54.972 18.579)" fill="#9ab1a1" fill-rule="evenodd"></path>
        <path id="SvgjsPath1007" data-name="Path 53" d="M48.183,427.281c1.642-8.113,3.233-16.195,4.631-24.268.438.194.913.39,1.426.591,6.842,2.671,18.741,5.193,32.209,6.7-.423,5.047-1.476,11.68-2.616,17.985-3.637,20.135-37.034,5.839-35.65-1.009M13.77,24.905c2.542,3.266,10.251,7.215,15.55,9.137-.977,7.925.757,19.293.99,27.064.211,6.981,40.463,32.918,44.1,12.783.979-5.424.667-23.192.829-31.261a174.29,174.29,0,0,0,35.27-.872c13.1-1.554,10.648-2.281,2.087-2.832-9.706-.624-22.077-.438-35.192-1.467C56.558,35.821,33.654,32.479,20.356,25.5a36.513,36.513,0,0,1-5.135-3.129,21.3,21.3,0,0,1-4.347-4.28c-1.167-1.605-2.486-.1,2.9,6.818" transform="translate(8.327 14.828)" fill="#daf5e1" fill-rule="evenodd"></path>
        <path id="SvgjsPath1006" data-name="Path 54" d="M250.644,35.462a567.113,567.113,0,0,1-6.246,74.107c-5.438,36.812-18.62,70.893-28.91,105.754-15.947,54.033-13.967,102.047-6.719,156.041,2.451,18.249,7.169,19.016-15.678,24.406a321.348,321.348,0,0,1-75.651,8.137c-27.04-.231-54.978-6.257-67.773-12.864-9.018-4.655-7.725-7.768-5.509-23.6,7.6-53.962,9.2-98.356-6.408-152.45C27.686,180.1,14.726,145.97,9.524,109.135,5.947,83.8,5.473,58.254,5.5,32.734,16.342,48.281,67.587,60.051,129.177,60.051c57.932,0,107-10.415,121.467-24.589" transform="translate(4.658 27.735)" fill="#a25035" fill-rule="evenodd"></path>
        <path id="SvgjsPath1005" data-name="Path 55" d="M241.31,37.535a594.1,594.1,0,0,1-5.811,69.311c-5.156,36.812-17.658,70.893-27.417,105.754-15.125,54.033-13.249,102.047-6.371,156.041,2.322,18.249,6.8,19.016-14.87,24.406a289.653,289.653,0,0,1-71.75,8.137c-25.646-.231-52.143-6.257-64.278-12.864-8.555-4.655-7.328-7.768-5.226-23.6,7.21-53.962,8.725-98.356-6.076-152.45-9.547-34.9-21.84-69.025-26.772-105.86C9.609,83.042,8.983,59.491,8.924,35.948c18.214,12.51,63.882,21.38,117.348,21.38,51.177,0,95.435-8.126,115.039-19.794" transform="translate(7.561 30.458)" fill="#80310d" fill-rule="evenodd"></path>
        <path id="SvgjsPath1004" data-name="Path 56" d="M172.847,388.238c-2.158.669-4.8,1.369-8.015,2.169a289.664,289.664,0,0,1-71.75,8.137c-8.012-.072-50.466-6.805-58.18-7.849.2-1.6,1.524-38.837,1.762-40.8,6.519-53.964,45.5-86.168,37.291-140.261-5.233-34.47-6.709-116.256-5.6-154.9,14.255,1.493,15.626.233,46.165.233s74.1-6.513,96.389-15.9c-3.1,22.2-7.531,49.067-9.334,63.48-4.607,36.812-17.1,72-24.726,106.865-11.822,54.031-7.084,122-4.173,175.988.054,1,.113,1.943.176,2.843" transform="translate(29.571 33.097)" fill="#692403" fill-rule="evenodd"></path>
        <path id="SvgjsPath1003" data-name="Path 57" d="M76.685,84.484c3.973.007,7.19,2.706,7.178,6.028s-3.238,6.005-7.214,6-7.191-2.708-7.18-6.028,3.24-6.007,7.215-6m45.371,86.362c2.435,0,4.4,1.657,4.4,3.691s-1.984,3.678-4.419,3.672-4.4-1.657-4.4-3.691,1.984-3.678,4.419-3.672m-7.23,139.67c2.435,0,4.4,1.657,4.4,3.691s-1.984,3.678-4.419,3.674-4.4-1.657-4.4-3.693,1.984-3.678,4.419-3.672m3.593-188.638c3.975.007,7.191,2.706,7.18,6.028s-3.24,6.006-7.214,6-7.191-2.706-7.182-6.028,3.242-6.006,7.215-6m23.627-64.224c3.975.007,7.191,2.708,7.18,6.028s-3.24,6.007-7.215,6-7.188-2.706-7.178-6.028,3.24-6.005,7.214-6m-82.676-3.09c3.973.007,7.19,2.706,7.178,6.028s-3.24,6.005-7.215,6-7.19-2.708-7.18-6.028,3.242-6.005,7.217-6m70.994,193.269c2.435,0,4.4,1.657,4.4,3.691s-1.982,3.678-4.417,3.672-4.4-1.657-4.4-3.691,1.984-3.678,4.419-3.672m-53.414-55.64c2.435.006,4.4,1.657,4.4,3.691s-1.984,3.678-4.417,3.672-4.4-1.657-4.4-3.691,1.984-3.678,4.419-3.672m39.5,35.371c3.975.007,7.19,2.706,7.18,6.028s-3.24,6.007-7.215,6-7.19-2.706-7.18-6.028,3.24-6.006,7.215-6m-38.9,70.372c3.975.007,7.19,2.706,7.18,6.026s-3.24,6.007-7.215,6-7.19-2.706-7.18-6.028,3.24-6.007,7.215-6m34.819-32.253c3.975.007,7.19,2.706,7.179,6.028s-3.238,6.005-7.214,6-7.19-2.708-7.18-6.028,3.24-6.007,7.215-6m-30.654-35.7c3.975.007,7.19,2.706,7.18,6.028s-3.24,6.006-7.215,6-7.19-2.706-7.18-6.028,3.24-6.007,7.215-6m52.664-27.244c3.973.007,7.19,2.706,7.18,6.028s-3.24,6.005-7.215,6-7.189-2.708-7.18-6.028,3.24-6.007,7.215-6m-21.617-45.282c2.435,0,4.4,1.657,4.4,3.691s-1.984,3.678-4.419,3.674-4.4-1.659-4.4-3.691,1.984-3.68,4.419-3.674m-10,29.348c3.975.009,7.19,2.708,7.18,6.028s-3.24,6.007-7.215,6-7.19-2.708-7.18-6.029,3.24-6.005,7.215-6M116.842,65.169c3.975.009,7.19,2.706,7.18,6.028s-3.24,6.007-7.215,6-7.19-2.706-7.18-6.026,3.24-6.007,7.215-6M92.377,131.24c3.975.009,7.191,2.708,7.18,6.028s-3.24,6.007-7.215,6-7.19-2.706-7.178-6.028,3.24-6.006,7.214-6m45.341,13.317c3.975.007,7.19,2.706,7.18,6.028s-3.24,6.006-7.215,6-7.19-2.706-7.178-6.028,3.24-6.007,7.214-6m12.2-61.965c2.435.006,4.4,1.657,4.4,3.693s-1.984,3.678-4.417,3.672-4.4-1.657-4.4-3.691,1.984-3.678,4.419-3.674M121.477,99.185c3.809.007,6.888,2.592,6.879,5.775s-3.1,5.754-6.912,5.747-6.888-2.594-6.879-5.775,3.1-5.754,6.913-5.747" transform="translate(44.186 46.23)" fill="#80310d" fill-rule="evenodd"></path>
        <path id="SvgjsPath1002" data-name="Path 58" d="M224.458,15.93c24.094,7.688,17.309,17.579-7.214,22.507-21.144,4.249-55.352,9.7-92.051,9.7-48.932,0-90.49-6.608-107.38-12.3-12.425-4.186-8.765-12.249.695-17.27C30.283,12.322,49.252,8.751,70.937,6.6c52.608-5.219,121.482-.894,153.521,9.329" transform="translate(8.366 3.711)" fill="#9ab1a1" fill-rule="evenodd"></path>
        <path id="SvgjsPath1001" data-name="Path 59" d="M213.142,27.53C201.456,33.91,162.455,38.6,116.127,38.6S30.8,33.91,19.116,27.53C30.8,21.147,69.805,16.459,116.127,16.459s85.329,4.688,97.015,11.071" transform="translate(16.196 13.945)" fill="#80310d" fill-rule="evenodd"></path>
        <path id="SvgjsPath1000" data-name="Path 60" d="M76.714,394.3c-13.625-2.161-25.72-5.546-33.546-9.218.924-6.249,3.663-12.55,4.838-18.737,8.5-44.734,26.545-27.744,28.568,3.632.493,7.646.992,16.655.14,24.323M40.391,145.983C31.814,101.3,26.932,90.929,20.838,41.226c12.161,3.754,27.4,6.779,44.68,8.8-.139,37.865.621,76.54.669,116.62.052,43.474-12.77,47.179-25.8-20.667" transform="translate(17.655 34.93)" fill="#9c5838" fill-rule="evenodd"></path>
      </g>
    </g>
  </g>
</svg><style>@media (prefers-color-scheme: light) { :root { filter: none; } }
</style></svg>