<?xml version="1.0" standalone="no"?>
<!DOCTYPE svg PUBLIC "-//W3C//DTD SVG 20010904//EN"
 "http://www.w3.org/TR/2001/REC-SVG-20010904/DTD/svg10.dtd">
<svg version="1.0" xmlns="http://www.w3.org/2000/svg"
 width="700.000000pt" height="700.000000pt" viewBox="0 0 700.000000 700.000000"
 preserveAspectRatio="xMidYMid meet">
<metadata>
Created by potrace 1.14, written by Peter Selinger 2001-2017
</metadata>
<g transform="translate(0.000000,700.000000) scale(0.100000,-0.100000)"
fill="#000000" stroke="none">
<path d="M3188 6996 c-1 -2 -59 -6 -128 -10 -212 -10 -391 -27 -545 -51 -16
-3 -48 -7 -69 -10 -21 -3 -48 -7 -60 -10 -12 -3 -32 -7 -46 -9 -71 -14 -90
-18 -150 -32 -106 -26 -236 -72 -313 -110 -134 -68 -240 -202 -282 -359 -23
-83 -22 -658 0 -945 11 -139 16 -186 20 -215 2 -16 7 -59 10 -95 4 -36 9 -74
11 -85 2 -11 11 -65 20 -120 13 -84 24 -147 49 -266 2 -9 6 -34 9 -55 4 -22 8
-46 11 -54 2 -8 6 -26 9 -40 3 -14 8 -36 10 -50 3 -14 8 -34 10 -45 47 -223
152 -613 246 -915 91 -293 139 -497 170 -730 6 -47 13 -95 15 -107 2 -12 7
-61 10 -110 4 -48 9 -104 11 -123 5 -51 5 -505 0 -575 -13 -172 -24 -295 -31
-345 -2 -14 -7 -53 -10 -88 -4 -35 -8 -71 -10 -81 -2 -9 -7 -44 -11 -76 -4
-33 -8 -62 -9 -65 -1 -3 -5 -30 -9 -60 -4 -30 -30 -145 -58 -254 -80 -321 -89
-415 -50 -507 61 -142 354 -276 742 -339 41 -7 82 -14 90 -15 8 -2 47 -6 85
-10 39 -4 78 -9 88 -11 132 -24 875 -24 1002 0 11 2 47 7 80 10 89 11 219 34
315 56 315 74 534 256 534 445 0 96 -10 149 -79 450 -9 36 -35 179 -40 220 -3
22 -8 51 -10 65 -2 14 -7 45 -10 70 -3 25 -8 61 -10 80 -3 19 -8 53 -10 75 -7
57 -15 114 -20 155 -3 19 -7 63 -10 97 -3 35 -7 75 -9 90 -19 120 -27 641 -12
833 5 58 10 107 11 110 2 3 6 32 10 65 8 81 43 276 62 350 8 33 16 67 18 75
11 49 69 231 184 575 71 215 151 462 176 550 74 253 140 556 161 740 2 22 6
54 8 70 4 28 9 73 22 215 3 30 7 280 10 555 5 536 3 559 -47 657 -60 117 -233
208 -504 263 -147 30 -276 50 -380 60 -38 4 -77 8 -85 10 -8 2 -62 7 -120 11
-58 3 -127 8 -155 11 -58 5 -922 13 -927 9z"/>
</g>
</svg>
